<svg xmlns="http://www.w3.org/2000/svg" viewBox="0 0 393.05 393.05"><defs><style>.cls-1{fill:#546b76;}.cls-2{fill:#b4e4f9;}.cls-3,.cls-4{fill:#213346;}.cls-4{font-size:182.13px;font-family:ArialMTBlack, Arial MT Black;}.cls-5{fill:none;stroke:#9e005d;stroke-miterlimit:10;stroke-width:25px;}</style></defs><title>Asset 7</title><g id="Layer_2" data-name="Layer 2"><g id="Layer_1-2" data-name="Layer 1"><path class="cls-1" d="M383.46,196.52c0,103.22-83.72,186.94-186.94,186.94a185.88,185.88,0,0,1-72.74-14.69h-.09A187.12,187.12,0,0,1,9.58,196.52C9.58,93.3,93.3,9.58,196.52,9.58A190.52,190.52,0,0,1,232,12.94C318.29,29.54,383.46,105.46,383.46,196.52Z"/><path class="cls-2" d="M346.5,185.32c0,103.22-83.67,186.94-186.94,186.94a37,37,0,0,1-5.08-.23,184.77,184.77,0,0,1-30.7-3.26h-.09A187.12,187.12,0,0,1,9.58,196.52C9.58,93.3,93.3,9.58,196.52,9.58A190.52,190.52,0,0,1,232,12.94a187.09,187.09,0,0,1,85.35,72.2A185.08,185.08,0,0,1,346.5,185.32Z"/><path class="cls-3" d="M202.56.19c-2-.19-4-.19-6-.19C88.2,0,0,88.2,0,196.52A195.67,195.67,0,0,0,32.21,304.18l.1.1a196.47,196.47,0,0,0,164.21,88.77c108.33,0,196.53-88.2,196.53-196.53C393.05,90.21,308.11,3.36,202.56.19Zm-6,373.68a164.85,164.85,0,0,1-25-1.82c-86-12.17-152.33-86.28-152.33-175.53,0-97.78,79.57-177.35,177.35-177.35A177.63,177.63,0,0,1,373.87,196.52C373.87,294.31,294.31,373.87,196.52,373.87Z"/><text class="cls-4" transform="translate(48.75 249.99)">AD</text><line class="cls-5" x1="325.21" y1="74.64" x2="75.21" y2="325.78"/></g></g></svg>