<svg xmlns="http://www.w3.org/2000/svg" viewBox="0 0 331.05 331.05"><defs><style>.cls-1{fill:#213346;}.cls-2{fill:#b4e4f9;}.cls-3,.cls-4,.cls-5{fill:#fff;}.cls-4{opacity:0.59;}.cls-4,.cls-5{isolation:isolate;}.cls-5{opacity:0.3;}.cls-6{fill:#9e005d;stroke:#9e005d;stroke-miterlimit:10;stroke-width:15px;}</style></defs><title>Asset 11</title><g id="Layer_2" data-name="Layer 2"><g id="Layer_1-2" data-name="Layer 1"><path class="cls-1" d="M281.39,21.6H49.66C33.4,21.6,21.6,33.4,21.6,49.65V281.39a30.07,30.07,0,0,0,.4,5A26.54,26.54,0,0,0,35.93,306.2a29.41,29.41,0,0,0,13.73,3.24H281.39c16.26,0,28.06-11.8,28.06-28.05V49.65C309.45,33.4,297.65,21.6,281.39,21.6ZM298,281.39c0,9.93-6.62,16.55-16.56,16.55H49.66a20.35,20.35,0,0,1-2.5-.15l-.8-.11-.44-.08c-.42-.08-.84-.17-1.25-.28l-.59-.16-.16-.05c-.35-.11-.7-.23-1-.36a6.81,6.81,0,0,1-.74-.31,7.79,7.79,0,0,1-.72-.34,4.41,4.41,0,0,1-.52-.28l-.4-.22c-.37-.21-.72-.45-1.06-.69A14.39,14.39,0,0,1,37.3,293c-.19-.2-.36-.4-.53-.6l-.22-.27-.22-.29c-.13-.17-.26-.35-.38-.53s-.18-.26-.27-.39l-.36-.61c-.1-.16-.18-.32-.27-.49s-.19-.37-.28-.56a15.3,15.3,0,0,1-1.08-3c-.06-.21-.11-.43-.16-.65-.09-.43-.17-.86-.23-1.31,0-.17,0-.34-.06-.52a18.3,18.3,0,0,1-.14-2.37V49.65c0-9.93,6.63-16.55,16.56-16.55H281.39c9.94,0,16.56,6.62,16.56,16.55Z"/><path class="cls-1" d="M281.39,0H49.66C21.52,0,0,21.52,0,49.65V281.39a49.65,49.65,0,0,0,13,34A48,48,0,0,0,29.44,327a51.43,51.43,0,0,0,20.22,4.05H281.39c28.14,0,49.66-21.52,49.66-49.66V49.65C331.05,21.52,309.53,0,281.39,0Zm28.06,281.39c0,16.25-11.8,28.05-28.06,28.05H49.66a29.41,29.41,0,0,1-13.73-3.24A26.54,26.54,0,0,1,22,286.37a30.07,30.07,0,0,1-.4-5V49.65c0-16.25,11.8-28,28.06-28H281.39c16.26,0,28.06,11.8,28.06,28.05Z"/><path class="cls-2" d="M298,49.65V281.39c0,9.93-6.62,16.55-16.56,16.55H49.66c-9.93,0-16.56-6.62-16.56-16.55V49.65c0-9.93,6.63-16.55,16.56-16.55H281.39C291.33,33.1,298,39.72,298,49.65Z"/><path class="cls-2" d="M281.39,21.6H49.66C33.4,21.6,21.6,33.4,21.6,49.65V281.39a30.07,30.07,0,0,0,.4,5A26.54,26.54,0,0,0,35.93,306.2a29.41,29.41,0,0,0,13.73,3.24H281.39c16.26,0,28.06-11.8,28.06-28.05V49.65C309.45,33.4,297.65,21.6,281.39,21.6Zm5.06,259.79c0,3.59-1.47,5.05-5.06,5.05H49.66c-3.59,0-5.06-1.46-5.06-5.05V49.65c0-3.59,1.47-5,5.06-5H281.39c3.59,0,5.06,1.46,5.06,5Z"/><polygon class="cls-3" points="208.05 21.6 204.65 33.1 201.24 44.6 129.59 286.44 126.19 297.94 122.78 309.44 62.69 309.44 66.1 297.94 69.5 286.44 141.15 44.6 144.56 33.1 147.96 21.6 208.05 21.6"/><path class="cls-4" d="M124.63,21.6,121,33.1l-3.58,11.5L44.6,278.37l-5.16,16.54L35.93,306.2A26.54,26.54,0,0,1,22,286.37l11.1-35.62,11.5-36.9L97.35,44.6l3.58-11.5,3.59-11.5Z"/><polygon class="cls-5" points="80.41 21.6 76.82 33.1 73.24 44.6 44.6 136.48 33.1 173.37 21.6 210.27 21.6 145.75 33.1 108.85 44.6 71.96 53.13 44.6 56.71 33.1 60.3 21.6 80.41 21.6"/><path class="cls-6" d="M176.74,53.72c-20.7-3.45-41.41,1.6-57.08,13.49a15.84,15.84,0,0,0-1.27,1.06,72.36,72.36,0,0,0-20.27,31,17.32,17.32,0,0,0,16.46,22.72h.64a17.31,17.31,0,0,0,16.32-11.55A31.72,31.72,0,0,1,141.75,95.7c8.75-7,17.49-8.75,29.74-7,14,1.75,26.24,14,28,28,3.46,15.58-3.35,29.45-17,36.52l-.87.47c-13,7.67-23.22,18.69-29.09,31.38-5.26,11.38,3.29,24.35,15.82,24.35h0A17.11,17.11,0,0,0,184.16,199a34.25,34.25,0,0,1,13.57-15.86c26.24-14,40.24-43.73,35-73.47C229.22,81.71,204.73,57.21,176.74,53.72Z"/><rect class="cls-6" x="147" y="243.41" width="34.99" height="34.99" rx="17.49" ry="17.49"/></g></g></svg>