<svg xmlns="http://www.w3.org/2000/svg" viewBox="0 0 495.66 438.39"><defs><style>.cls-1{fill:#cacad8;}.cls-2{fill:#a1a1c4;}.cls-3{fill:#1e1e30;}.cls-4{fill:#546b76;}.cls-5{fill:#7997a3;}.cls-6{fill:#3c5159;}.cls-7{fill:#b4e4f9;}.cls-8{fill:#70bee0;}.cls-10,.cls-11,.cls-9{fill:#fff;}.cls-9{opacity:0.59;}.cls-10,.cls-13,.cls-9{isolation:isolate;}.cls-10{opacity:0.3;}.cls-12{fill:#9e005d;}.cls-13{fill:#444053;opacity:0.6;}.cls-14{fill:#213346;}.cls-15{fill:#dce1ff;}</style></defs><title>Asset 9</title><g id="Layer_2" data-name="Layer 2"><g id="Layer_1-2" data-name="Layer 1"><path class="cls-1" d="M299.17,386.59H165.45a8.85,8.85,0,0,1-8.23-12.15L182,312.26l50.3-13.82,50.31,13.85,24.78,62.19a8.84,8.84,0,0,1-8.23,12.11Z"/><polygon class="cls-2" points="292.79 338.09 173.25 338.09 174.41 330.18 291.63 330.18 292.79 338.09"/><circle class="cls-2" cx="184.52" cy="339.27" r="4.19"/><circle class="cls-2" cx="197.2" cy="344.87" r="2.14"/><circle class="cls-2" cx="188.16" cy="352.78" r="2.79"/><path class="cls-3" d="M299.17,388.51H165.45a10.79,10.79,0,0,1-10.78-10.79,11,11,0,0,1,.77-4l24.79-62.19a1.9,1.9,0,0,1,1.27-1.14l50.31-13.82a1.92,1.92,0,0,1,1,0l50.3,13.79a1.94,1.94,0,0,1,1.28,1.14l24.78,62.19a10.79,10.79,0,0,1-10,14.76ZM183.4,313.88,159,375.2a6.94,6.94,0,0,0,3.81,9.05,7,7,0,0,0,2.64.52H299.17a7,7,0,0,0,6.45-9.57l-24.43-61.32-48.88-13.39Z"/><path class="cls-4" d="M18.09,1.91H439.81a16.37,16.37,0,0,1,16.36,16.36V315.32a15.54,15.54,0,0,1-15.54,15.54H17.28A15.54,15.54,0,0,1,1.74,315.32v-297A16.36,16.36,0,0,1,18.09,1.91Z"/><path class="cls-5" d="M455.65,18.26V28.35A16.36,16.36,0,0,0,439.3,12H17.58A16.37,16.37,0,0,0,1.22,28.35V18.26A16.36,16.36,0,0,1,17.58,1.91H439.3a16.35,16.35,0,0,1,16.35,16.35Z"/><path class="cls-1" d="M456.17,277.28v38a15.54,15.54,0,0,1-15.54,15.54H17.28A15.54,15.54,0,0,1,1.74,315.32v-38Z"/><rect class="cls-2" x="1.93" y="276.47" width="454.43" height="8.38"/><path class="cls-6" d="M456.36,268.9v8.38H1.91s-3.63-23.46.77-22.67C80.12,268.58,456.36,268.9,456.36,268.9Z"/><rect class="cls-7" x="25.12" y="27.98" width="408.03" height="226.94"/><path class="cls-3" d="M1.93,178.4A1.92,1.92,0,0,1,0,176.49V63.55a1.92,1.92,0,1,1,3.83,0V176.49A1.92,1.92,0,0,1,1.93,178.4Z"/><path class="cls-3" d="M456.36,67.63a1.91,1.91,0,0,1-1.91-1.91V18.27A14.47,14.47,0,0,0,440,3.83H18.28A14.45,14.45,0,0,0,3.85,18.27V51.11a1.92,1.92,0,0,1-3.83,0V18.27A18.29,18.29,0,0,1,18.28,0H440a18.29,18.29,0,0,1,18.27,18.27V65.72A1.91,1.91,0,0,1,456.36,67.63Z"/><path class="cls-3" d="M456.36,279.19H1.91a1.91,1.91,0,0,1,0-3.82H456.36a1.91,1.91,0,0,1,0,3.82Z"/><rect class="cls-8" x="25.12" y="245.61" width="408.03" height="9.32"/><polygon class="cls-9" points="199.89 254.92 190.57 254.92 247.97 27.98 257.29 27.98 199.89 254.92"/><polygon class="cls-10" points="179.4 254.92 170.08 254.92 227.48 27.98 236.8 27.98 179.4 254.92"/><polygon class="cls-11" points="241.55 254.92 213.1 254.92 270.5 27.98 298.96 27.98 241.55 254.92"/><path class="cls-3" d="M25.12,124.55a1.92,1.92,0,0,1-1.91-1.92v-22a1.92,1.92,0,0,1,3.83,0v22A1.92,1.92,0,0,1,25.12,124.55Z"/><circle class="cls-6" cx="396.14" cy="266.91" r="2.38"/><circle class="cls-6" cx="400.62" cy="265.23" r="0.71"/><circle class="cls-6" cx="397.15" cy="262.33" r="0.71"/><circle class="cls-6" cx="390.32" cy="262.25" r="1.64"/><circle class="cls-6" cx="387.99" cy="267.09" r="1.44"/><circle class="cls-6" cx="383.89" cy="263.78" r="0.74"/><circle class="cls-6" cx="385.52" cy="260.51" r="0.9"/><circle class="cls-6" cx="378.49" cy="266.07" r="1.55"/><circle class="cls-6" cx="406.11" cy="264.01" r="0.97"/><circle class="cls-6" cx="402.48" cy="261.06" r="0.55"/><circle class="cls-6" cx="406.74" cy="259.06" r="0.97"/><circle class="cls-6" cx="402.3" cy="263.21" r="0.67"/><circle class="cls-6" cx="398.99" cy="259.06" r="0.76"/><circle class="cls-6" cx="394.23" cy="257.95" r="1.11"/><circle class="cls-6" cx="395.13" cy="260.75" r="0.24"/><circle class="cls-6" cx="394.1" cy="263.06" r="0.35"/><circle class="cls-6" cx="406.07" cy="267.99" r="1.55"/><circle class="cls-6" cx="412.3" cy="266.16" r="1.2"/><circle class="cls-6" cx="418.4" cy="268.15" r="2.52"/><circle class="cls-6" cx="426.03" cy="268.33" r="2.69"/><circle class="cls-6" cx="430.8" cy="267.24" r="1.18"/><circle class="cls-6" cx="426.45" cy="263.46" r="0.42"/><circle class="cls-6" cx="420.61" cy="261.42" r="0.91"/><circle class="cls-6" cx="416.8" cy="260.14" r="0.92"/><circle class="cls-6" cx="413.55" cy="261.28" r="1.25"/><circle class="cls-6" cx="410.19" cy="262.33" r="0.92"/><circle class="cls-6" cx="419.15" cy="264.32" r="0.55"/><circle class="cls-8" cx="348.59" cy="242.13" r="4.54"/><circle class="cls-8" cx="357.13" cy="238.94" r="1.35"/><circle class="cls-8" cx="350.52" cy="233.42" r="1.36"/><circle class="cls-8" cx="337.51" cy="233.26" r="3.11"/><circle class="cls-8" cx="333.08" cy="242.47" r="2.76"/><circle class="cls-8" cx="325.28" cy="236.19" r="1.41"/><circle class="cls-8" cx="328.41" cy="229.95" r="1.71"/><circle class="cls-8" cx="315.01" cy="240.53" r="2.94"/><circle class="cls-8" cx="367.58" cy="236.62" r="1.84"/><circle class="cls-8" cx="360.67" cy="231.01" r="1.05"/><circle class="cls-8" cx="368.78" cy="227.2" r="1.84"/><circle class="cls-8" cx="360.32" cy="235.1" r="1.27"/><circle class="cls-8" cx="354.03" cy="227.2" r="1.44"/><circle class="cls-8" cx="344.98" cy="225.09" r="2.11"/><circle class="cls-8" cx="346.67" cy="230.41" r="0.46"/><circle class="cls-8" cx="344.74" cy="234.82" r="0.68"/><circle class="cls-8" cx="367.51" cy="244.19" r="2.95"/><circle class="cls-8" cx="379.35" cy="240.72" r="2.28"/><circle class="cls-8" cx="390.96" cy="244.51" r="4.78"/><circle class="cls-8" cx="405.49" cy="244.85" r="5.13"/><circle class="cls-8" cx="414.56" cy="242.77" r="2.23"/><circle class="cls-8" cx="406.29" cy="235.57" r="0.79"/><circle class="cls-8" cx="395.17" cy="231.69" r="1.73"/><circle class="cls-8" cx="387.91" cy="229.27" r="1.74"/><circle class="cls-8" cx="381.74" cy="231.43" r="2.39"/><circle class="cls-8" cx="375.33" cy="233.42" r="1.74"/><circle class="cls-8" cx="392.39" cy="237.22" r="1.03"/><circle class="cls-2" cx="70.77" cy="292.44" r="2.14"/><path class="cls-3" d="M85.72,13.8H40.21a1.44,1.44,0,0,1,0-2.87H85.72a1.44,1.44,0,1,1,0,2.87Z"/><path class="cls-3" d="M104.89,13.8H95.74a1.44,1.44,0,1,1,0-2.87h9.15a1.44,1.44,0,0,1,0,2.87Z"/><circle class="cls-2" cx="57.5" cy="287.79" r="7.13"/><circle class="cls-2" cx="65.09" cy="301.78" r="3.54"/><circle class="cls-2" cx="44.53" cy="294.92" r="3.52"/><circle class="cls-11" cx="228.95" cy="305.33" r="12.88"/><path class="cls-3" d="M229.18,322.48a16.5,16.5,0,1,1-.79-33h.79a1.91,1.91,0,1,1,0,3.82,12.68,12.68,0,1,0,10.83,6.1,1.92,1.92,0,0,1,3.28-2,16.5,16.5,0,0,1-14.11,25.06Z"/><path class="cls-3" d="M168,375.54a1.23,1.23,0,0,1-.5-.09,1.42,1.42,0,0,1-.85-1.82v0l3.56-9.4a1.44,1.44,0,0,1,2.69,1l-3.57,9.41A1.43,1.43,0,0,1,168,375.54Z"/><path class="cls-3" d="M175,357a1.7,1.7,0,0,1-.51-.08,1.44,1.44,0,0,1-.84-1.85h0l2.11-5.59a1.43,1.43,0,1,1,2.74.85.7.7,0,0,1-.06.17l-2.11,5.58A1.45,1.45,0,0,1,175,357Z"/><path class="cls-8" d="M118,249.92H75.25a4.31,4.31,0,1,1,0-8.61H118a4.31,4.31,0,1,1,0,8.61Z"/><path class="cls-5" d="M275.11,16.67H232.34a4.31,4.31,0,0,1,0-8.61h42.77a4.31,4.31,0,0,1,0,8.61Z"/><path class="cls-5" d="M370,16.67h-19.8a4.31,4.31,0,0,1,0-8.61H370a4.31,4.31,0,0,1,0,8.61Z"/><path class="cls-6" d="M22.32,220a2.39,2.39,0,0,1-2.39-2.39V169.53a2.39,2.39,0,1,1,4.78,0v48.05A2.39,2.39,0,0,1,22.35,220Z"/><path class="cls-6" d="M435.57,114.64a2.39,2.39,0,0,1-2.39-2.39V64.19a2.39,2.39,0,1,1,4.78,0v48.06A2.39,2.39,0,0,1,435.57,114.64Z"/><path class="cls-6" d="M435.57,229.26a2.39,2.39,0,0,1-2.39-2.39V178.79a2.39,2.39,0,0,1,4.78,0v48.08A2.39,2.39,0,0,1,435.57,229.26Z"/><path class="cls-8" d="M429.73,183.05a3.35,3.35,0,0,1-3.35-3.35V131.63a3.35,3.35,0,1,1,6.7,0V179.7A3.35,3.35,0,0,1,429.73,183.05Z"/><path class="cls-8" d="M429.73,50.74a3.34,3.34,0,0,1-3.35-3.34V37.6a3.35,3.35,0,1,1,6.7,0v9.8A3.34,3.34,0,0,1,429.73,50.74Z"/><path class="cls-8" d="M28.27,164.21a3.35,3.35,0,0,1-3.35-3.35v-9.79a3.35,3.35,0,0,1,6.7,0v9.79A3.35,3.35,0,0,1,28.27,164.21Z"/><path class="cls-2" d="M363.38,330.52h-9.82a3.35,3.35,0,0,1,0-6.7h9.8a3.35,3.35,0,0,1,0,6.7Z"/><path class="cls-8" d="M28.27,236.48a3.35,3.35,0,0,1-3.35-3.34v-9.82a3.35,3.35,0,0,1,6.7,0v9.8a3.34,3.34,0,0,1-3.33,3.36Z"/><path class="cls-8" d="M28.27,44.41a3.35,3.35,0,0,1-3.35-3.35v-9.8a3.35,3.35,0,0,1,6.7,0v9.8A3.35,3.35,0,0,1,28.27,44.41Z"/><path class="cls-3" d="M433.16,256.35h-408a1.43,1.43,0,0,1-1.43-1.43V133.11a1.44,1.44,0,1,1,2.87,0V253.48H431.72V29.42H26.56V86.11a1.44,1.44,0,1,1-2.87,0V28a1.43,1.43,0,0,1,1.43-1.43h408A1.43,1.43,0,0,1,434.59,28V254.89a1.42,1.42,0,0,1-1.4,1.46Z"/><path class="cls-11" d="M441.58,332.85H420.53a3.83,3.83,0,1,1,0-7.66h21.05c4.25,0,9.1-4.57,9.1-8.61V304.71a3.83,3.83,0,1,1,7.65,0V316.6C458.28,324.8,450,332.85,441.58,332.85Z"/><path class="cls-11" d="M55.89,326.08h-21a3.83,3.83,0,0,1,0-7.65h21a3.83,3.83,0,1,1,0,7.65Z"/><path class="cls-3" d="M440.82,332.77H17.47A17.47,17.47,0,0,1,0,315.32V188.41a1.92,1.92,0,1,1,3.83,0V315.32a13.62,13.62,0,0,0,13.62,13.62H440.82a13.65,13.65,0,0,0,13.63-13.62V173.57a1.91,1.91,0,1,1,3.82,0V315.32A17.47,17.47,0,0,1,440.82,332.77Z"/><path class="cls-12" d="M92.14,207.11v-23.4a.66.66,0,0,1,.66-.67h2.65a.67.67,0,0,1,.67.67h0v9.73l10.78-10a1.75,1.75,0,0,1,2.48.22,1.7,1.7,0,0,1,.41,1.07v21.2a1.77,1.77,0,0,1-2.89,1.3L96.12,197.3V207a.67.67,0,0,1-.67.66H92.8A.66.66,0,0,1,92.14,207.11Z"/><path class="cls-12" d="M352.75,183.71v23.4a.67.67,0,0,1-.66.66h-2.61a.67.67,0,0,1-.66-.66h0v-9.74l-10.79,10a1.77,1.77,0,0,1-2.5-.24,1.84,1.84,0,0,1-.4-1.05V184.78a1.77,1.77,0,0,1,2.9-1.29l10.79,9.93v-9.68a.67.67,0,0,1,.66-.66h2.59A.67.67,0,0,1,352.75,183.71Z"/><path class="cls-12" d="M218,208.12h-5.28a2.59,2.59,0,0,1-2.59-2.6V186.16a2.59,2.59,0,0,1,2.59-2.6H218a2.59,2.59,0,0,1,2.59,2.6v19.36A2.59,2.59,0,0,1,218,208.12Zm16.72-2.6V186.16a2.59,2.59,0,0,0-2.59-2.6h-5.33a2.59,2.59,0,0,0-2.59,2.6v19.36a2.59,2.59,0,0,0,2.59,2.6h5.28a2.59,2.59,0,0,0,2.64-2.54Z"/><rect class="cls-13" x="66.87" y="152.16" width="311.13" height="3.46"/><circle class="cls-12" cx="162.94" cy="153.89" r="8.21"/><rect class="cls-12" x="66.87" y="152.16" width="96.07" height="3.46"/><rect class="cls-5" x="327.89" y="125.7" width="160.06" height="310.84" rx="23.69" ry="23.69"/><path class="cls-4" d="M464.12,126.81H350.79A23.82,23.82,0,0,0,332,136a23.76,23.76,0,0,1,14.63-5H460a23.76,23.76,0,0,1,23.83,23.69l11.88,262.92c0,5.27-13.65,10.95-16.91,15.09A23.58,23.58,0,0,0,488,414V150.5A23.76,23.76,0,0,0,464.12,126.81Z"/><path class="cls-14" d="M464.26,438.39H351.58A25.56,25.56,0,0,1,326,412.87V149.39a25.58,25.58,0,0,1,25.54-25.55H464.26a25.57,25.57,0,0,1,25.54,25.55V208.9h-3.7V149.39a21.87,21.87,0,0,0-21.84-21.84H351.58a21.86,21.86,0,0,0-21.84,21.84V412.87a21.87,21.87,0,0,0,21.84,21.83H464.26a21.87,21.87,0,0,0,21.84-21.83V237.64h3.7V412.87A25.56,25.56,0,0,1,464.26,438.39Z"/><rect class="cls-7" x="338.86" y="137.45" width="138.11" height="285.48" rx="11.31" ry="11.31"/><polygon class="cls-11" points="415.9 420.98 387.93 420.98 444.36 137.84 472.33 137.84 415.9 420.98"/><polygon class="cls-9" points="374.66 420.98 365.3 420.98 422.96 145.96 432.32 145.96 374.66 420.98"/><polygon class="cls-10" points="354.07 420.98 344.71 420.98 402.38 145.96 411.74 145.96 354.07 420.98"/><path class="cls-15" d="M465,138.11H349.52a11.29,11.29,0,0,0-10,6,11.23,11.23,0,0,1,5.27-1.3H460.28a11.32,11.32,0,0,1,11.32,11.31V417a11.31,11.31,0,0,1-1.31,5.28,11.32,11.32,0,0,0,6-10V149.42A11.31,11.31,0,0,0,465,138.11Z"/><path class="cls-14" d="M465.66,424.33H350.18a12.72,12.72,0,0,1-12.71-12.71V148.77a12.73,12.73,0,0,1,12.71-12.7H465.66a12.71,12.71,0,0,1,12.7,12.7V411.62A12.71,12.71,0,0,1,465.66,424.33ZM350.18,138.85a9.93,9.93,0,0,0-9.93,9.92V411.62a10,10,0,0,0,9.93,9.93H465.66a10,10,0,0,0,9.93-9.93V148.77a9.93,9.93,0,0,0-9.93-9.92Z"/><path class="cls-15" d="M371.1,144v3.93a9.14,9.14,0,0,0,9.13,9.14h63.13a9.14,9.14,0,0,0,9.14-9.14V144"/><path class="cls-5" d="M368.57,134.44v4.41c0,5.68,4.1,10.29,9.14,10.29h63.15c5,0,9.13-4.63,9.13-10.29v-4.41"/><path class="cls-4" d="M369.86,135.94v3.87a9.11,9.11,0,0,0,9.2,9h63.62a9.13,9.13,0,0,0,9.2-9v-3.87"/><path class="cls-14" d="M442.2,150.55H379.06A10.55,10.55,0,0,1,368.53,140V136.1h2.78V140a7.76,7.76,0,0,0,7.75,7.75H442.2A7.75,7.75,0,0,0,450,140V136.1h2.78V140A10.55,10.55,0,0,1,442.2,150.55Z"/><path class="cls-12" d="M362.47,388.69v-8.21a.23.23,0,0,1,.23-.23h.93a.23.23,0,0,1,.23.23h0v3.42l3.79-3.51a.62.62,0,0,1,.87.08.57.57,0,0,1,.14.37v7.44a.61.61,0,0,1-.63.6.59.59,0,0,1-.38-.14l-3.79-3.49v3.4a.23.23,0,0,1-.23.23h-.93A.22.22,0,0,1,362.47,388.69Z"/><path class="cls-12" d="M453.94,380.48v8.21a.23.23,0,0,1-.23.24h-.91a.24.24,0,0,1-.24-.24h0v-3.41l-3.78,3.5a.63.63,0,0,1-.88-.08.59.59,0,0,1-.14-.38v-7.46a.62.62,0,0,1,.65-.6.73.73,0,0,1,.37.14l3.78,3.49v-3.4a.24.24,0,0,1,.24-.23h.91A.24.24,0,0,1,453.94,380.48Z"/><path class="cls-12" d="M406.66,389.05h-1.85a.91.91,0,0,1-.91-.91v-6.8a.91.91,0,0,1,.91-.91h1.85a.91.91,0,0,1,.91.91v6.8A.91.91,0,0,1,406.66,389.05Zm5.87-.91v-6.8a.91.91,0,0,0-.91-.91h-1.87a.91.91,0,0,0-.91.91v6.8a.91.91,0,0,0,.91.91h1.85a.91.91,0,0,0,.93-.89Z"/><rect class="cls-13" x="353.6" y="369.41" width="109.21" height="1.21"/><circle class="cls-12" cx="387.32" cy="370.01" r="2.88"/><rect class="cls-12" x="353.6" y="369.41" width="33.72" height="1.21"/><path class="cls-14" d="M421.22,142.63H395.09a2.17,2.17,0,1,1,0-4.33h26.13a2.17,2.17,0,1,1,0,4.33Z"/><path class="cls-14" d="M430.27,142.63h-.12a2.17,2.17,0,1,1,0-4.33h.12a2.17,2.17,0,1,1,0,4.33Z"/></g></g></svg>