<svg xmlns="http://www.w3.org/2000/svg" viewBox="0 0 482.75 409.21"><defs><style>.cls-1{fill:#cacad8;}.cls-2{fill:#a1a1c4;}.cls-3{fill:#1e1e30;}.cls-4{fill:#546b76;}.cls-5{fill:#7997a3;}.cls-6{fill:#3c5159;}.cls-7{fill:#b4e4f9;}.cls-8{fill:#70bee0;}.cls-10,.cls-11,.cls-9{fill:#fff;}.cls-9{opacity:0.59;}.cls-10,.cls-9{isolation:isolate;}.cls-10{opacity:0.3;}.cls-12{font-size:164.66px;fill:#213346;font-family:ArialMTBlack, Arial MT Black;}</style></defs><title>Asset 8</title><g id="Layer_2" data-name="Layer 2"><g id="Layer_1-2" data-name="Layer 1"><path class="cls-1" d="M315.11,407.2H174.26a9.33,9.33,0,0,1-8.66-12.8l26.11-65.5,53-14.56,53,14.6,26.1,65.5a9.33,9.33,0,0,1-5.26,12.1A9.44,9.44,0,0,1,315.11,407.2Z"/><polygon class="cls-2" points="308.39 356.1 182.49 356.1 183.71 347.77 307.17 347.77 308.39 356.1"/><circle class="cls-2" cx="194.36" cy="357.35" r="4.41"/><circle class="cls-2" cx="207.71" cy="363.25" r="2.26"/><circle class="cls-2" cx="198.19" cy="371.58" r="2.94"/><path class="cls-3" d="M315.11,409.21H174.26a11.37,11.37,0,0,1-10.54-15.56l26.11-65.5a2,2,0,0,1,1.34-1.2l53-14.55a2,2,0,0,1,1.07,0l53,14.52a2,2,0,0,1,1.34,1.2l26.1,65.5a11.35,11.35,0,0,1-10.54,15.55Zm-121.93-78.6-25.74,64.58a7.31,7.31,0,0,0,6.79,10.08H315.11a7.31,7.31,0,0,0,7.33-7.3,7.21,7.21,0,0,0-.54-2.78l-25.72-64.58L244.69,316.5Z"/><path class="cls-4" d="M19.06,2H463.24a17.23,17.23,0,0,1,17.24,17.23V332.12a16.37,16.37,0,0,1-16.37,16.37H18.2A16.37,16.37,0,0,1,1.83,332.12V19.25A17.22,17.22,0,0,1,19.06,2Z"/><path class="cls-5" d="M479.93,19.24V29.86a17.23,17.23,0,0,0-17.22-17.23H18.52A17.24,17.24,0,0,0,1.29,29.86V19.24A17.23,17.23,0,0,1,18.52,2H462.71a17.22,17.22,0,0,1,17.22,17.22Z"/><path class="cls-1" d="M480.48,292.05v40.07a16.37,16.37,0,0,1-16.37,16.37H18.2A16.37,16.37,0,0,1,1.83,332.12V292.05Z"/><rect class="cls-2" x="2.04" y="291.21" width="478.64" height="8.83"/><path class="cls-6" d="M480.68,283.23v8.82H2s-3.83-24.7.8-23.87C84.39,282.89,480.68,283.23,480.68,283.23Z"/><rect class="cls-7" x="26.46" y="29.48" width="429.78" height="239.03"/><path class="cls-3" d="M2,187.91a2,2,0,0,1-2-2v-119a2,2,0,0,1,4,0v119A2,2,0,0,1,2,187.91Z"/><path class="cls-3" d="M480.68,71.23a2,2,0,0,1-2-2v-50A15.24,15.24,0,0,0,463.45,4H19.26A15.24,15.24,0,0,0,4.05,19.25V53.83a2,2,0,1,1-4,0V19.25A19.28,19.28,0,0,1,19.26,0H463.45a19.26,19.26,0,0,1,19.24,19.25v50A2,2,0,0,1,480.68,71.23Z"/><path class="cls-3" d="M480.68,294.07H2a2,2,0,1,1,0-4H480.68a2,2,0,0,1,0,4Z"/><rect class="cls-8" x="26.46" y="258.7" width="429.78" height="9.82"/><polygon class="cls-9" points="210.54 268.5 200.73 268.5 261.19 29.48 271 29.48 210.54 268.5"/><polygon class="cls-10" points="188.96 268.5 179.14 268.5 239.6 29.48 249.42 29.48 188.96 268.5"/><polygon class="cls-11" points="254.43 268.5 224.46 268.5 284.92 29.48 314.89 29.48 254.43 268.5"/><text class="cls-12" transform="translate(114.03 213.81)">HD</text><path class="cls-3" d="M26.46,131.18a2,2,0,0,1-2-2V106a2,2,0,0,1,4,0v23.18A2,2,0,0,1,26.46,131.18Z"/><circle class="cls-6" cx="417.25" cy="281.13" r="2.51"/><circle class="cls-6" cx="421.97" cy="279.37" r="0.75"/><circle class="cls-6" cx="418.31" cy="276.31" r="0.75"/><circle class="cls-6" cx="411.12" cy="276.22" r="1.72"/><circle class="cls-6" cx="408.67" cy="281.32" r="1.52"/><circle class="cls-6" cx="404.34" cy="277.84" r="0.78"/><circle class="cls-6" cx="406.07" cy="274.39" r="0.95"/><circle class="cls-6" cx="398.66" cy="280.24" r="1.63"/><circle class="cls-6" cx="427.75" cy="278.08" r="1.02"/><circle class="cls-6" cx="423.92" cy="274.97" r="0.58"/><circle class="cls-6" cx="428.42" cy="272.87" r="1.02"/><circle class="cls-6" cx="423.74" cy="277.24" r="0.71"/><circle class="cls-6" cx="420.26" cy="272.87" r="0.8"/><circle class="cls-6" cx="415.24" cy="271.7" r="1.17"/><circle class="cls-6" cx="416.18" cy="274.64" r="0.25"/><circle class="cls-6" cx="415.11" cy="277.08" r="0.37"/><circle class="cls-6" cx="427.71" cy="282.27" r="1.63"/><circle class="cls-6" cx="434.27" cy="280.34" r="1.26"/><circle class="cls-6" cx="440.69" cy="282.44" r="2.65"/><circle class="cls-6" cx="448.73" cy="282.63" r="2.83"/><circle class="cls-6" cx="453.76" cy="281.48" r="1.24"/><circle class="cls-6" cx="449.18" cy="277.5" r="0.44"/><circle class="cls-6" cx="443.02" cy="275.35" r="0.96"/><circle class="cls-6" cx="439.01" cy="274.01" r="0.97"/><circle class="cls-6" cx="435.59" cy="275.21" r="1.32"/><circle class="cls-6" cx="432.05" cy="276.31" r="0.97"/><circle class="cls-6" cx="441.49" cy="278.41" r="0.57"/><circle class="cls-8" cx="367.17" cy="255.03" r="4.79"/><circle class="cls-8" cx="376.16" cy="251.68" r="1.42"/><circle class="cls-8" cx="369.19" cy="245.86" r="1.43"/><circle class="cls-8" cx="355.5" cy="245.69" r="3.28"/><circle class="cls-8" cx="350.83" cy="255.39" r="2.9"/><circle class="cls-8" cx="342.61" cy="248.77" r="1.48"/><circle class="cls-8" cx="345.91" cy="242.2" r="1.8"/><circle class="cls-8" cx="331.8" cy="253.35" r="3.09"/><circle class="cls-8" cx="387.17" cy="249.23" r="1.93"/><circle class="cls-8" cx="379.89" cy="243.32" r="1.11"/><circle class="cls-8" cx="388.43" cy="239.31" r="1.93"/><circle class="cls-8" cx="379.52" cy="247.62" r="1.34"/><circle class="cls-8" cx="372.89" cy="239.31" r="1.51"/><circle class="cls-8" cx="363.36" cy="237.08" r="2.23"/><circle class="cls-8" cx="365.14" cy="242.69" r="0.48"/><circle class="cls-8" cx="363.11" cy="247.33" r="0.72"/><circle class="cls-8" cx="387.09" cy="257.21" r="3.1"/><circle class="cls-8" cx="399.57" cy="253.55" r="2.4"/><circle class="cls-8" cx="411.79" cy="257.54" r="5.04"/><circle class="cls-8" cx="427.1" cy="257.89" r="5.4"/><circle class="cls-8" cx="436.65" cy="255.71" r="2.35"/><circle class="cls-8" cx="427.94" cy="248.13" r="0.84"/><circle class="cls-8" cx="416.22" cy="244.04" r="1.82"/><circle class="cls-8" cx="408.59" cy="241.49" r="1.83"/><circle class="cls-8" cx="402.09" cy="243.76" r="2.52"/><circle class="cls-8" cx="395.33" cy="245.86" r="1.83"/><circle class="cls-8" cx="413.3" cy="249.86" r="1.09"/><circle class="cls-2" cx="74.54" cy="308.03" r="2.26"/><path class="cls-3" d="M40.74,78.19a1.51,1.51,0,0,1-1.39-2.1v0L53.47,43.37a1.51,1.51,0,0,1,2.77,1.2L42.13,77.25A1.5,1.5,0,0,1,40.74,78.19Z"/><path class="cls-3" d="M52.66,71.71a1.54,1.54,0,0,1-.6-.13,1.51,1.51,0,0,1-.8-2v0l7.06-16.33a1.5,1.5,0,0,1,2-.79,1.52,1.52,0,0,1,.79,2L54.05,70.76A1.49,1.49,0,0,1,52.66,71.71Z"/><circle class="cls-3" cx="50.21" cy="77.2" r="2.41"/><path class="cls-3" d="M90.29,14.53H42.35a1.51,1.51,0,1,1,0-3H90.29a1.51,1.51,0,0,1,0,3Z"/><path class="cls-3" d="M110.48,14.53h-9.64a1.51,1.51,0,0,1,0-3h9.64a1.51,1.51,0,0,1,0,3Z"/><circle class="cls-2" cx="60.56" cy="303.13" r="7.51"/><circle class="cls-2" cx="68.55" cy="317.86" r="3.73"/><circle class="cls-2" cx="46.9" cy="310.64" r="3.71"/><circle class="cls-11" cx="241.15" cy="321.6" r="13.56"/><path class="cls-3" d="M241.4,339.67a17.39,17.39,0,0,1-.84-34.76h.84a2,2,0,0,1,0,4,13.35,13.35,0,1,0,11.4,6.42,2,2,0,1,1,3.45-2.09,17.38,17.38,0,0,1-14.85,26.4Z"/><path class="cls-3" d="M176.9,395.56a1.61,1.61,0,0,1-.53-.1,1.51,1.51,0,0,1-.89-1.92v0l3.75-9.91a1.51,1.51,0,1,1,2.83,1.07l-3.76,9.91A1.53,1.53,0,0,1,176.9,395.56Z"/><path class="cls-3" d="M184.29,376a1.6,1.6,0,0,1-.53-.09,1.5,1.5,0,0,1-.88-1.95h0l2.23-5.88A1.51,1.51,0,0,1,188,369a1.71,1.71,0,0,1-.07.18l-2.23,5.89A1.53,1.53,0,0,1,184.29,376Z"/><path class="cls-8" d="M124.29,263.23h-45a4.54,4.54,0,1,1,0-9.07h45a4.54,4.54,0,1,1,0,9.07Z"/><path class="cls-5" d="M289.77,17.55h-45a4.54,4.54,0,0,1,0-9.07h45a4.54,4.54,0,0,1,0,9.07Z"/><path class="cls-5" d="M389.69,17.55H368.84a4.54,4.54,0,0,1,0-9.07h20.85a4.54,4.54,0,1,1,0,9.07Z"/><path class="cls-6" d="M23.51,231.72A2.52,2.52,0,0,1,21,229.2V178.57a2.52,2.52,0,0,1,5,0v50.6a2.52,2.52,0,0,1-2.49,2.55Z"/><path class="cls-6" d="M458.78,120.75a2.52,2.52,0,0,1-2.52-2.52V67.61a2.52,2.52,0,0,1,5,0v50.62A2.52,2.52,0,0,1,458.78,120.75Z"/><path class="cls-6" d="M458.78,241.48a2.52,2.52,0,0,1-2.52-2.52V188.32a2.52,2.52,0,0,1,5,0V239A2.52,2.52,0,0,1,458.78,241.48Z"/><path class="cls-8" d="M452.63,192.81a3.52,3.52,0,0,1-3.52-3.53V138.64a3.53,3.53,0,1,1,7.05,0v50.64A3.53,3.53,0,0,1,452.63,192.81Z"/><path class="cls-8" d="M452.63,53.45a3.52,3.52,0,0,1-3.52-3.53V39.6a3.53,3.53,0,0,1,7.05,0V49.92A3.53,3.53,0,0,1,452.63,53.45Z"/><path class="cls-8" d="M29.78,173a3.53,3.53,0,0,1-3.53-3.52V159.12a3.53,3.53,0,1,1,7,0v10.32A3.52,3.52,0,0,1,29.78,173Z"/><path class="cls-2" d="M382.75,348.13H372.4a3.53,3.53,0,1,1,0-7.05h10.33a3.53,3.53,0,0,1,0,7.05Z"/><path class="cls-8" d="M29.78,249.09a3.53,3.53,0,0,1-3.53-3.53V235.22a3.53,3.53,0,1,1,7,0v10.32a3.52,3.52,0,0,1-3.5,3.55Z"/><path class="cls-8" d="M29.78,46.78a3.53,3.53,0,0,1-3.53-3.53V32.92a3.53,3.53,0,1,1,7,0V43.25A3.52,3.52,0,0,1,29.78,46.78Z"/><path class="cls-3" d="M456.24,270H26.46A1.52,1.52,0,0,1,25,268.5V140.2a1.51,1.51,0,1,1,3,0V267H454.73V31H28V90.7a1.51,1.51,0,1,1-3,0V29.48A1.52,1.52,0,0,1,26.46,28H456.24a1.51,1.51,0,0,1,1.51,1.52v239a1.51,1.51,0,0,1-1.48,1.55Z"/><path class="cls-11" d="M465.11,350.58H442.94a4,4,0,0,1,0-8.06h22.17c4.48,0,9.58-4.82,9.58-9.07V321a4,4,0,1,1,8.06,0v12.52C482.7,342.11,474,350.58,465.11,350.58Z"/><path class="cls-11" d="M58.87,340.31H36.7a4,4,0,1,1,0-8.06H58.87a4,4,0,1,1,0,8.06Z"/><path class="cls-3" d="M464.31,350.5H18.4A18.39,18.39,0,0,1,0,332.12V198.45a2,2,0,1,1,4,0V332.12A14.36,14.36,0,0,0,18.4,346.47H464.31a14.37,14.37,0,0,0,14.35-14.35V182.82a2,2,0,1,1,4,0v149.3A18.39,18.39,0,0,1,464.31,350.5Z"/></g></g></svg>