<svg xmlns="http://www.w3.org/2000/svg" viewBox="0 0 393.05 393.04"><defs><style>.cls-1{fill:#546b76;}.cls-2{fill:#b4e4f9;}.cls-3,.cls-4,.cls-5{fill:#fff;}.cls-4{opacity:0.59;}.cls-4,.cls-5{isolation:isolate;}.cls-5{opacity:0.3;}.cls-6{fill:#213346;}.cls-7{fill:#9e005d;stroke:#9e005d;stroke-miterlimit:10;stroke-width:9px;}</style></defs><title>Asset 10</title><g id="Layer_2" data-name="Layer 2"><g id="Layer_1-2" data-name="Layer 1"><path class="cls-1" d="M383.46,196.52c0,103.22-83.71,186.94-186.93,186.94a185.9,185.9,0,0,1-72.75-14.7h-.09A187.09,187.09,0,0,1,9.59,196.52C9.59,93.3,93.31,9.58,196.53,9.58A190.6,190.6,0,0,1,232,12.94C318.29,29.53,383.46,105.45,383.46,196.52Z"/><path class="cls-2" d="M346.5,185.32c0,103.22-83.67,186.94-186.94,186.94a37,37,0,0,1-5.08-.23,184.78,184.78,0,0,1-30.7-3.27h-.09A187.09,187.09,0,0,1,9.59,196.52C9.59,93.3,93.31,9.58,196.53,9.58A190.6,190.6,0,0,1,232,12.94a187.13,187.13,0,0,1,85.35,72.2A185.13,185.13,0,0,1,346.5,185.32Z"/><path class="cls-3" d="M274.83,16.35l-2.71,9.14-2.56,8.64h0l-.2.67-14,47.11-4.71,15.89-6.44,21.76-10.52,35.51-6.4,21.59L220,201.46l-2.78,9.36-4.55,15.38-2.78,9.38L207.1,245,169.54,371.76l-.08.24-2.69,9.1L164,390.34a194.49,194.49,0,0,1-54.82-17.81l2.74-9.24,2.81-9.47,11.93-40.29,2.56-8.62,4.83-16.3,10.63-35.89L151.14,231l6.42-21.7,6.52-22,2.78-9.35,2.77-9.36,4.58-15.45,2.77-9.35,2.77-9.37L213.66,20l2.77-9.36,2.74-9.25A195,195,0,0,1,274.83,16.35Z"/><path class="cls-4" d="M195.51,5.69,194.29,9.6l-3,9.65-28.74,92.21-2.87,9.23-2.88,9.22-4.74,15.23-2.88,9.23-2.87,9.22L113.76,268l-10.67,34.22L91.53,339.32l-3,9.77-3,9.49a198.23,198.23,0,0,1-16.24-12.44l3.08-9.87,3.18-10.22L132.1,144.63l2.87-9.21,2.87-9.23,4.76-15.25,2.87-9.22,2.88-9.23,22.26-71.43L173.76,11l1.64-5.27Z"/><path class="cls-5" d="M151.29,5.69,148.1,15.92h0l-3.42,11L128.35,79.3,126,87l-2.7,8.68-2.4,7.67-2.92,9.39-2.87,9.22L57.52,306.51l-3.44,11.06-3.3,10.58a193.55,193.55,0,0,1-14.48-18l3.59-11.52,3.8-12.19L121.83,35.68l3.8-12.18,3.62-11.63a195.4,195.4,0,0,1,20.27-6.18Z"/><path class="cls-6" d="M274.83,16.35a195,195,0,0,0-55.66-15Q211,.45,202.56.19c-2-.19-4-.19-6-.19a195.67,195.67,0,0,0-67.28,11.87C53.93,39.41,0,111.81,0,196.52A195.69,195.69,0,0,0,32.21,304.18l.1.09q1.94,3,4,5.83a193.55,193.55,0,0,0,14.48,18,197.49,197.49,0,0,0,58.43,44.38A195.69,195.69,0,0,0,196.53,393c108.32,0,196.52-88.19,196.52-196.52C393.05,116,344.33,46.64,274.83,16.35Zm-78.3,357.52a166,166,0,0,1-25-1.82l-.8-.12-1.17-.17a176.61,176.61,0,0,1-78-32.44,178.17,178.17,0,0,1-16-13.27,180.24,180.24,0,0,1-18-19.54,178.32,178.32,0,0,1-13.83-20.12,176.14,176.14,0,0,1-24.52-89.87c0-71.11,42.09-132.59,102.66-160.84a176.27,176.27,0,0,1,69.45-16.43c1.74-.05,3.49-.08,5.25-.08q8.67,0,17.13.83a175.68,175.68,0,0,1,55.7,14.81c1,.45,2,.91,3,1.38h0A178,178,0,0,1,373.88,196.52C373.88,294.3,294.31,373.87,196.53,373.87Z"/><path class="cls-7" d="M281.73,284.11,220,201.46,214.38,194l13-17.28L278,109.09a13.8,13.8,0,0,0-3.18-19.54,15,15,0,0,0-20.23,3.07l-3.87,5.19-53.94,72.41L177,143.81l-17.31-23.12-14.2-19-6.81-9.1A15.24,15.24,0,0,0,126,87a14.53,14.53,0,0,0-7.54,2.6,13.35,13.35,0,0,0-3.18,19.54l2.7,3.6,17,22.73,14.2,19L166.86,178l12,16L151.14,231l-39.65,53.08a13.33,13.33,0,0,0,3.18,19.54,15.69,15.69,0,0,0,14.58,1.26,14.65,14.65,0,0,0,5.65-4.33L196.75,218l13.13,17.62,48.44,65a15.29,15.29,0,0,0,20.23,3.07A13.81,13.81,0,0,0,281.73,284.11Z"/><path class="cls-7" d="M152.05,145.14l-2.88,9.23L166.86,178l2.77-9.36Zm0,0-2.88,9.23L166.86,178l2.77-9.36Zm136.19,134.6L224.16,194l60.23-80.38.09-.11a21.18,21.18,0,0,0-5-30.1l-.14-.1a23.25,23.25,0,0,0-23.92-1.34,22,22,0,0,0-7.27,6.23l-51.39,69-17-22.7-17.21-23-14.19-19-3.27-4.36-.15-.19a23.11,23.11,0,0,0-16.58-8.64,22.6,22.6,0,0,0-14.52,4,20.82,20.82,0,0,0-5,30.26l6.25,8.34,17,22.72,14.2,19,17.78,23.73,5,6.63-11.49,15.38L113.76,268l-8.64,11.57a20.74,20.74,0,0,0-2,22.65,21.59,21.59,0,0,0,7,7.73l.2.12a23.88,23.88,0,0,0,16.35,3.47,22.7,22.7,0,0,0,14.48-8.27L196.74,231,207.1,245l44.79,60.1.16.21a22.89,22.89,0,0,0,18,8.54,24,24,0,0,0,12.86-3.74l.33-.22A21.17,21.17,0,0,0,288.24,279.74ZM274,297.35a7.19,7.19,0,0,1-9.38-1.36l-52-69.79-15.89-21.33-62.69,83.74L128.56,296a7.2,7.2,0,0,1-9.46,1.33,5.91,5.91,0,0,1-2.52-3.86,6.18,6.18,0,0,1,1.34-4.86l26.79-35.87,43.9-58.78-19-25.33-17.58-23.47-14.21-18.95-16.22-21.65a7,7,0,0,1-.76-1.24A5.77,5.77,0,0,1,123,95.83l.14-.09.17-.11a6.88,6.88,0,0,1,9.06,1.59l10.28,13.72,14.19,19,17.42,23.25,22.56,30.14,47.48-63.73L261,97.12a6.82,6.82,0,0,1,9.23-1.34,6.31,6.31,0,0,1,1.3,8.89l-37.77,50.41-29.12,38.86,12.6,16.88,58,77.71A6.3,6.3,0,0,1,274,297.35Zm-122-152.21-2.88,9.23L166.86,178l2.77-9.36Z"/></g></g></svg>